<svg width="142" height="142" viewBox="0 0 142 142" fill="none" xmlns="http://www.w3.org/2000/svg">
<path fill-rule="evenodd" clip-rule="evenodd" d="M41.4167 5.91663C38.149 5.91663 35.5 8.56564 35.5 11.8333V17.75H29.5833C19.7803 17.75 11.8333 25.6969 11.8333 35.5V118.333C11.8333 128.137 19.7803 136.083 29.5833 136.083H77.5143C74.0477 132.687 71.1757 128.685 69.0688 124.25H29.5833C26.3157 124.25 23.6667 121.601 23.6667 118.333V65.0833H118.333V66.7985C122.608 68.0706 126.593 70.0142 130.167 72.5069V35.5C130.167 25.6969 122.22 17.75 112.417 17.75H106.5V11.8333C106.5 8.56564 103.851 5.91663 100.583 5.91663C97.3156 5.91663 94.6667 8.56564 94.6667 11.8333V17.75H47.3333V11.8333C47.3333 8.56564 44.6843 5.91663 41.4167 5.91663ZM94.6667 35.5V29.5833H47.3333V35.5C47.3333 38.7676 44.6843 41.4166 41.4167 41.4166C38.149 41.4166 35.5 38.7676 35.5 35.5V29.5833H29.5833C26.3157 29.5833 23.6667 32.2323 23.6667 35.5V53.25H118.333V35.5C118.333 32.2323 115.684 29.5833 112.417 29.5833H106.5V35.5C106.5 38.7676 103.851 41.4166 100.583 41.4166C97.3156 41.4166 94.6667 38.7676 94.6667 35.5Z" fill="#FF66C4"/>
<path d="M90.483 104.767C92.7934 102.456 96.5399 102.456 98.8503 104.767L102.644 108.56L113.88 97.3238C116.191 95.0133 119.937 95.0133 122.248 97.3238C124.558 99.6348 124.558 103.381 122.248 105.692L107.218 120.721C106.706 121.232 106.125 121.631 105.505 121.915C103.239 123.241 100.28 122.932 98.3368 120.988L90.483 113.134C88.1725 110.824 88.1725 107.077 90.483 104.767Z" fill="#FF66C4"/>
<path fill-rule="evenodd" clip-rule="evenodd" d="M142 106.5C142 126.106 126.106 142 106.5 142C86.8939 142 71 126.106 71 106.5C71 86.8939 86.8939 71 106.5 71C126.106 71 142 86.8939 142 106.5ZM82.7262 106.5C82.7262 119.63 93.3703 130.274 106.5 130.274C119.63 130.274 130.274 119.63 130.274 106.5C130.274 93.3703 119.63 82.7262 106.5 82.7262C93.3703 82.7262 82.7262 93.3703 82.7262 106.5Z" fill="#FF66C4"/>
</svg>
