<svg width="135" height="144" viewBox="0 0 135 144" fill="none" xmlns="http://www.w3.org/2000/svg">
<path d="M16.875 53.7034H118.125M34.875 113.374H100.125C106.426 113.374 109.576 113.374 111.983 112.073C114.099 110.929 115.82 109.103 116.899 106.858C118.125 104.305 118.125 100.963 118.125 94.2795V48.9298C118.125 42.2461 118.125 38.9042 116.899 36.3514C115.82 34.1058 114.099 32.2801 111.983 31.136C109.576 29.8352 106.426 29.8352 100.125 29.8352H34.875C28.5744 29.8352 25.4241 29.8352 23.0176 31.136C20.9008 32.2801 19.1797 34.1058 18.1012 36.3514C16.875 38.9042 16.875 42.246 16.875 48.9298V94.2795C16.875 100.963 16.875 104.305 18.1012 106.858C19.1797 109.103 20.9008 110.929 23.0176 112.073C25.4241 113.374 28.5744 113.374 34.875 113.374Z" stroke="black" stroke-width="10" stroke-linecap="round" stroke-linejoin="round"/>
</svg>
