<svg width="128" height="128" viewBox="0 0 128 128" fill="none" xmlns="http://www.w3.org/2000/svg">
<path fill-rule="evenodd" clip-rule="evenodd" d="M64 9.27081C33.7739 9.27081 9.27083 33.7739 9.27083 64C9.27083 94.2259 33.7739 118.729 64 118.729C94.2259 118.729 118.729 94.2259 118.729 64C118.729 33.7739 94.2259 9.27081 64 9.27081ZM0.395828 64C0.395828 28.8724 28.8724 0.395813 64 0.395813C99.1278 0.395813 127.604 28.8724 127.604 64C127.604 99.1278 99.1278 127.604 64 127.604C28.8724 127.604 0.395828 99.1278 0.395828 64ZM64 24.0625C66.4507 24.0625 68.4375 26.0492 68.4375 28.5V30.374C78.084 32.1013 86.1875 39.3488 86.1875 49.2083C86.1875 51.659 84.2007 53.6458 81.75 53.6458C79.2993 53.6458 77.3125 51.659 77.3125 49.2083C77.3125 44.213 72.1443 38.8541 64 38.8541C55.8557 38.8541 50.6875 44.213 50.6875 49.2083C50.6875 54.2038 55.8557 59.5625 64 59.5625C75.4618 59.5625 86.1875 67.4482 86.1875 78.7916C86.1875 88.6512 78.084 95.8985 68.4375 97.6262V99.5C68.4375 101.951 66.4507 103.937 64 103.937C61.5493 103.937 59.5625 101.951 59.5625 99.5V97.6262C49.9158 95.8985 41.8125 88.6512 41.8125 78.7916C41.8125 76.341 43.7992 74.3541 46.25 74.3541C48.7007 74.3541 50.6875 76.341 50.6875 78.7916C50.6875 83.7871 55.8557 89.1458 64 89.1458C72.1443 89.1458 77.3125 83.7871 77.3125 78.7916C77.3125 73.7962 72.1443 68.4375 64 68.4375C52.5382 68.4375 41.8125 60.5517 41.8125 49.2083C41.8125 39.3488 49.9158 32.1013 59.5625 30.374V28.5C59.5625 26.0492 61.5493 24.0625 64 24.0625Z" fill="#FF66C4"/>
</svg>
