<svg width="190" height="190" viewBox="0 0 190 190" fill="none" xmlns="http://www.w3.org/2000/svg">
<path fill-rule="evenodd" clip-rule="evenodd" d="M154.376 47.4987C154.376 44.3487 153.127 41.3287 150.896 39.1037C148.671 36.8737 145.651 35.6237 142.5 35.6237C115.666 35.6237 50.5871 35.6237 23.7532 35.6237C20.6018 35.6237 17.5819 36.8737 15.3567 39.1037C13.126 41.3287 11.8764 44.3487 11.8764 47.4987C11.8764 65.7486 11.8764 100.499 11.8764 118.749C11.8764 121.899 13.126 124.919 15.3567 127.144C17.5819 129.374 20.6018 130.624 23.7532 130.624C50.5871 130.624 115.666 130.624 142.5 130.624C145.651 130.624 148.671 129.374 150.896 127.144C153.127 124.919 154.376 121.899 154.376 118.749C154.376 100.499 154.376 65.7486 154.376 47.4987Z" fill="white"/>
<path d="M148.435 154.374C164.831 154.374 178.122 141.082 178.122 124.686C178.122 108.29 164.831 94.9987 148.435 94.9987C132.039 94.9987 118.747 108.29 118.747 124.686C118.747 141.082 132.039 154.374 148.435 154.374Z" fill="white"/>
<path fill-rule="evenodd" clip-rule="evenodd" d="M142.5 29.6875H23.75C19.0238 29.6875 14.4934 31.5637 11.1565 34.9065C7.81374 38.2434 5.9375 42.7738 5.9375 47.5V118.75C5.9375 123.476 7.81374 128.007 11.1565 131.343C14.4934 134.686 19.0238 136.562 23.75 136.562H114.843C119.736 150.391 132.941 160.312 148.438 160.312C168.097 160.312 184.062 144.347 184.062 124.688C184.062 109.191 174.141 95.9856 160.312 91.0931V47.5C160.312 42.7738 158.436 38.2434 155.093 34.9065C151.757 31.5637 147.226 29.6875 142.5 29.6875ZM148.438 100.938C161.548 100.938 172.188 111.577 172.188 124.688C172.188 137.798 161.548 148.438 148.438 148.438C135.327 148.438 124.688 137.798 124.688 124.688C124.688 111.577 135.327 100.938 148.438 100.938ZM142.5 112.812V124.688C142.5 127.965 145.16 130.625 148.438 130.625H160.312C163.59 130.625 166.25 127.965 166.25 124.688C166.25 121.41 163.59 118.75 160.312 118.75H154.375V112.812C154.375 109.535 151.715 106.875 148.438 106.875C145.16 106.875 142.5 109.535 142.5 112.812ZM148.438 65.3125H142.5C132.668 65.3125 124.688 57.3325 124.688 47.5V41.5625H41.5625V47.5C41.5625 57.3325 33.5825 65.3125 23.75 65.3125H17.8125V100.938H23.75C33.5825 100.938 41.5625 108.918 41.5625 118.75V124.688H112.812C112.812 105.028 128.778 89.0625 148.438 89.0625V65.3125ZM17.8125 112.812V118.75C17.8125 120.323 18.4359 121.838 19.5522 122.948C20.6625 124.064 22.1766 124.688 23.75 124.688H29.6875V118.75C29.6875 115.473 27.0275 112.812 23.75 112.812H17.8125ZM83.125 53.4375C66.7375 53.4375 53.4375 66.7375 53.4375 83.125C53.4375 99.5125 66.7375 112.812 83.125 112.812C99.5125 112.812 112.812 99.5125 112.812 83.125C112.812 66.7375 99.5125 53.4375 83.125 53.4375ZM83.125 65.3125C92.9575 65.3125 100.938 73.2925 100.938 83.125C100.938 92.9575 92.9575 100.938 83.125 100.938C73.2925 100.938 65.3125 92.9575 65.3125 83.125C65.3125 73.2925 73.2925 65.3125 83.125 65.3125ZM136.562 41.5625V47.5C136.562 50.7775 139.223 53.4375 142.5 53.4375H148.438V47.5C148.438 45.9266 147.814 44.4125 146.698 43.3022C145.588 42.1859 144.073 41.5625 142.5 41.5625H136.562ZM29.6875 41.5625H23.75C22.1766 41.5625 20.6625 42.1859 19.5522 43.3022C18.4359 44.4125 17.8125 45.9266 17.8125 47.5V53.4375H23.75C27.0275 53.4375 29.6875 50.7775 29.6875 47.5V41.5625Z" fill="#1E255E"/>
</svg>
