<svg width="135" height="135" viewBox="0 0 135 135" fill="none" xmlns="http://www.w3.org/2000/svg">
<path d="M100.55 98.803C98.2708 98.8081 96.0134 98.3618 93.9078 97.49C91.8022 96.6182 89.89 95.3382 88.2816 93.7237L70.5628 76.0049C69.9356 75.409 69.1035 75.0768 68.2383 75.0768C67.3731 75.0768 66.541 75.409 65.9138 76.0049L48.1275 93.7912C46.5197 95.4064 44.6076 96.687 42.5019 97.5588C40.3961 98.4307 38.1385 98.8765 35.8594 98.8705H32.3663L54.81 121.314C61.8131 128.317 73.1785 128.317 80.1816 121.314L102.684 98.803H100.55ZM35.8594 36.1293C40.5 36.1293 44.8538 37.9349 48.1275 41.2087L65.9138 58.9949C66.2194 59.301 66.5824 59.5439 66.982 59.7096C67.3816 59.8753 67.8099 59.9606 68.2425 59.9606C68.6751 59.9606 69.1035 59.8753 69.5031 59.7096C69.9026 59.5439 70.2656 59.301 70.5713 58.9949L88.29 41.2762C89.8969 39.6619 91.8075 38.3819 93.9118 37.5101C96.016 36.6383 98.272 36.1919 100.55 36.1968H102.684L80.1816 13.694C76.8163 10.331 72.2534 8.44189 67.4958 8.44189C62.7382 8.44189 58.1753 10.331 54.81 13.694L32.3663 36.1377L35.8594 36.1293Z" fill="#38BEB0"/>
<path d="M121.306 54.81L107.705 41.2087C107.399 41.3341 107.073 41.4 106.743 41.4028H100.558C97.3603 41.4028 94.23 42.7022 91.9772 44.9634L74.2584 62.6822C73.4704 63.4743 72.5337 64.1029 71.502 64.5318C70.4703 64.9607 69.364 65.1815 68.2467 65.1815C67.1294 65.1815 66.0231 64.9607 64.9914 64.5318C63.9597 64.1029 63.023 63.4743 62.235 62.6822L44.4487 44.8875C42.1668 42.6149 39.0799 41.3353 35.8594 41.3268H28.2656C27.9508 41.3243 27.6391 41.2643 27.3459 41.1497L13.6941 54.81C6.69093 61.8131 6.69093 73.1784 13.6941 80.19L27.3459 93.8418C27.6359 93.7251 27.9447 93.6622 28.2572 93.6562H35.8594C39.0656 93.6562 42.1875 92.3653 44.4487 90.104L62.2265 72.3093C63.8487 70.7649 66.0027 69.9035 68.2425 69.9035C70.4823 69.9035 72.6363 70.7649 74.2584 72.3093L91.9772 90.0281C94.23 92.2893 97.3603 93.5803 100.558 93.5803H106.743C107.08 93.5803 107.409 93.6647 107.705 93.7828L121.306 80.1815C128.309 73.1784 128.309 61.8131 121.306 54.81Z" fill="#38BEB0"/>
</svg>
