<svg width="250" height="250" viewBox="0 0 250 250" fill="none" xmlns="http://www.w3.org/2000/svg">
<g clip-path="url(#clip0_71_62)">
<path d="M211.957 0C196.949 0 184.783 12.1665 184.783 27.1738V105.254L211.957 104.892V0Z" fill="#1E255E"/>
<path d="M173.913 76.0869V0C158.905 0 146.739 12.1665 146.739 27.1738V108.696L97.8262 141.305C107.79 167.21 128.983 220.652 135.326 234.964L145.986 228.261C184.956 203.653 211.058 160.518 211.924 111.228C223.25 106.104 230.978 94.7358 230.978 81.522V76.0874L173.913 76.0869Z" fill="#FCFCFC"/>
<path d="M44.0728 203.635C41.5444 202.024 38.5454 201.087 35.3262 201.087C26.3213 201.087 19.022 208.386 19.022 217.391C19.022 235.4 33.6216 250 51.6309 250C52.5483 250 53.4541 249.953 54.3525 249.878C54.3525 248.152 65.7598 223.007 65.7612 223.007C59.6016 217.21 50.9058 209.963 44.0728 203.635Z" fill="#FCFCFC"/>
<path d="M54.3521 250H168.478C168.478 237.994 158.745 228.261 146.739 228.261H141.306C148.129 219.178 152.173 207.887 152.173 195.652C152.173 165.637 127.841 141.304 97.8257 141.304C67.8101 141.304 43.478 165.637 43.478 195.652C43.478 198.365 43.688 201.028 44.0728 203.635C45.4219 212.783 49.042 221.191 54.3535 228.261C54.3521 228.261 54.3521 248.152 54.3521 249.878C54.3521 249.957 54.3521 250 54.3521 250Z" fill="#1E255E"/>
<path d="M76.0869 195.652H59.7827V211.957H76.0869V195.652Z" fill="#1E255E"/>
<path d="M97.8262 217.391H81.522V233.695H97.8262V217.391Z" fill="#1E255E"/>
</g>
<defs>
<clipPath id="clip0_71_62">
<rect width="250" height="250" fill="white"/>
</clipPath>
</defs>
</svg>
