<svg width="133" height="109" viewBox="0 0 133 109" fill="none" xmlns="http://www.w3.org/2000/svg">
<path d="M81.1854 11.1477C77.6757 11.767 74.2275 14.3991 72.5035 17.8054C71.703 19.4156 71.5799 20.0349 71.4875 22.8219C71.3951 24.5869 71.272 26.0113 71.1796 26.0113C71.0873 26.0113 68.963 23.9986 66.5 21.5213C60.8044 15.8545 59.85 15.3281 55.1088 15.3281C52.184 15.3281 51.6914 15.421 49.9674 16.2261C46.2421 17.9292 43.5329 21.8619 43.1942 25.9804C43.0095 28.3338 43.656 31.3375 44.7028 33.1025C45.0722 33.7219 47.5968 36.4778 50.306 39.2338C53.0153 42.0207 55.1704 44.3432 55.078 44.4051C55.0164 44.467 54.0312 44.8077 52.9229 45.1483C49.444 46.2321 43.5636 49.5454 42.1782 51.2486C41.8704 51.6202 41.6549 51.5582 40.7005 50.7841C38.3606 48.9261 34.0197 47.4088 30.8794 47.3778C25.3069 47.3469 19.3035 50.9699 16.7481 55.8934C11.6683 65.6477 16.9944 77.167 27.6775 79.4585C28.7859 79.6753 30.0789 79.892 30.5099 79.892C31.218 79.892 31.372 80.0778 31.6798 81.3474C33.3424 88.067 40.0847 94.415 46.8579 95.6537C48.3972 95.9324 60.0039 96.0562 78.784 96.0253L85.0646 95.9943L86.0498 94.9415C87.3428 93.548 87.6507 91.9997 86.9118 90.5133C85.9882 88.6244 85.0954 88.1909 81.7396 88.0051L78.784 87.8503L78.938 87.0451C79.0303 86.6116 79.2458 85.0943 79.3998 83.7008C79.9539 78.4057 82.7863 75.8665 88.1125 75.8665C93.8697 75.8355 96.9792 74.9065 99.6884 72.3363C102.829 69.3636 103.598 66.7315 103.352 59.5784C103.229 55.4599 103.075 54.1903 102.398 51.8988C101.351 48.3687 99.2882 44.4051 97.1331 41.7111L95.4398 39.6363V30.7182C95.4398 21.2116 95.2243 19.3846 93.8389 17.0622C92.1148 14.1204 89.19 11.9838 86.019 11.3025C83.6792 10.8071 83.3405 10.8071 81.1854 11.1477ZM85.2493 19.4466C87.2197 20.4994 87.4352 21.3665 87.4352 28.0861V34.0315L85.9882 33.3812C85.1569 33.0096 83.3405 32.3903 81.8935 32.0187L79.2766 31.3375V26.5687C79.2766 21.2736 79.4613 20.6542 81.3701 19.5085C82.6016 18.7344 83.8947 18.7344 85.2493 19.4466ZM56.4326 23.3483C56.9868 23.565 60.5273 26.9403 64.3449 30.8111C68.1625 34.6508 71.6414 38.119 72.1032 38.4287C72.7805 38.9241 73.7657 39.1099 76.4134 39.3267C82.0474 39.7602 85.7111 41.4324 89.5287 45.2721C91.9301 47.7184 93.6542 50.4434 94.5778 53.2613C95.1012 54.8406 95.2551 56.296 95.3475 60.0738C95.5014 64.7187 95.4706 64.9045 94.7625 65.9574C93.7773 67.4128 92.5458 67.7844 88.5127 67.7844C83.2481 67.8153 79.8924 68.9611 76.9676 71.717L75.4898 73.1105L73.4271 71.5312C70.9025 69.6113 69.5171 68.8682 67.2081 68.2798C63.3905 67.2889 60.6812 67.9392 59.6037 70.1068C58.1875 72.9557 60.5273 75.8665 64.2833 75.8665C66.4384 75.8665 69.3016 77.9721 70.3792 80.3565C71.5799 82.8957 71.272 87.9432 69.9481 87.9432C69.6403 87.9432 64.7759 87.9432 59.1111 87.9432C48.0278 87.9432 47.1349 87.8193 44.6412 86.24C39.7768 83.1125 37.9604 77.8173 39.3766 70.9738C40.4849 65.6167 43.8099 60.1048 47.9662 56.7915C50.0597 55.1193 55.2627 52.4872 57.4178 52.0227C58.2799 51.8369 60.4657 51.5582 62.2822 51.4034C65.1762 51.1866 65.7303 51.0628 66.4076 50.4434C67.7007 49.2358 68.1317 47.9042 67.7007 46.3559C67.4236 45.2412 66.1921 43.8787 59.3574 36.9423C51.5683 29.077 51.3528 28.8292 51.1988 27.4358C50.9218 25.0824 52.5843 23.1006 55.0472 22.9457C55.2627 22.9148 55.8785 23.1006 56.4326 23.3483ZM34.3583 56.296C36.4211 57.3488 36.4826 57.5656 35.2511 59.6403C33.5271 62.4892 32.2956 66.0503 31.2488 70.9738C31.0641 71.9957 30.3868 72.0886 28.2625 71.3454C25.0299 70.2616 22.7824 67.1031 22.7824 63.6349C22.7824 58.8971 26.6923 55.2432 31.4336 55.5528C32.3572 55.6148 33.681 55.9554 34.3583 56.296Z" fill="black"/>
<path d="M81.5856 51.9608C79.5537 52.9827 78.8456 55.7077 80.1386 57.6276C81.4009 59.5165 83.6176 60.012 85.5264 58.8352C88.2048 57.1941 87.7738 53.0756 84.7875 51.837C83.4329 51.2796 82.8787 51.2796 81.5856 51.9608Z" fill="black"/>
</svg>
