<svg width="320" height="323" viewBox="0 0 320 323" fill="none" xmlns="http://www.w3.org/2000/svg">
<ellipse cx="160" cy="161.5" rx="160" ry="161.5" fill="url(#paint0_linear_96_29)"/>
<g clip-path="url(#clip0_96_29)">
<path d="M199.392 146.037L156.348 189.08C153.279 192.151 148.299 192.151 145.229 189.08L124.61 168.463C121.54 165.392 121.54 160.413 124.61 157.342C127.681 154.273 132.662 154.273 135.73 157.342L150.789 172.4L188.272 134.917C191.342 131.847 196.322 131.847 199.392 134.917C202.461 137.986 202.461 142.967 199.392 146.037ZM161.999 82.4912C140.802 95.0073 118.63 104.479 94.709 111.033V146.71C94.709 213.647 152.6 241.508 161.999 241.508C171.399 241.508 229.292 213.647 229.292 146.71V111.033C206.73 104.851 183.126 94.9652 161.999 82.4912Z" fill="white"/>
<path d="M230.214 107.665C207.374 101.406 184.4 91.6621 163.776 79.4851C162.68 78.8383 161.321 78.8383 160.226 79.4851C139.006 92.0119 117.274 101.229 93.786 107.665C92.2686 108.08 91.2169 109.459 91.2169 111.033V146.711C91.2169 183.453 108.167 207.773 122.386 221.705C137.694 236.705 155.526 245 162.001 245C168.474 245 186.306 236.705 201.615 221.705C215.834 207.773 232.783 183.453 232.783 146.711V111.032C232.783 109.459 231.731 108.08 230.214 107.665ZM225.799 146.711C225.799 181.027 209.99 203.721 196.727 216.716C181.673 231.467 165.578 238.016 162.001 238.016C158.424 238.016 142.328 231.467 127.273 216.716C114.011 203.721 98.2008 181.027 98.2008 146.711V113.683C120.662 107.306 141.58 98.4055 162.001 86.5382C181.913 98.0907 203.875 107.433 225.799 113.682V146.711Z" fill="white"/>
<path d="M131.049 113.292C130.343 111.498 128.315 110.616 126.52 111.323C120.282 113.781 113.88 116.044 107.49 118.048C106.034 118.505 105.043 119.854 105.043 121.38V134.864C105.043 136.793 106.607 138.356 108.535 138.356C110.463 138.356 112.027 136.793 112.027 134.864V123.932C117.759 122.077 123.485 120.026 129.08 117.821C130.875 117.114 131.756 115.087 131.049 113.292Z" fill="white"/>
<path d="M137.682 113.955C138.151 113.955 138.627 113.86 139.083 113.661L139.147 113.633C140.914 112.859 141.709 110.803 140.935 109.037C140.16 107.27 138.092 106.471 136.327 107.244L136.271 107.269C134.503 108.041 133.705 110.095 134.477 111.862C135.05 113.174 136.335 113.955 137.682 113.955Z" fill="white"/>
<path d="M203.604 191.596C201.991 190.541 199.827 190.994 198.771 192.609C195.893 197.013 192.518 201.23 188.736 205.143C185.626 208.36 182.256 211.358 178.72 214.054C177.187 215.223 176.891 217.414 178.06 218.948C178.748 219.849 179.788 220.323 180.839 220.323C181.578 220.323 182.322 220.09 182.954 219.607C186.769 216.699 190.403 213.465 193.756 209.997C197.845 205.768 201.499 201.203 204.617 196.429C205.673 194.814 205.218 192.65 203.604 191.596Z" fill="white"/>
<path d="M170.61 219.53L170.41 219.648C168.741 220.615 168.171 222.751 169.137 224.419C169.785 225.538 170.957 226.162 172.162 226.162C172.756 226.162 173.358 226.011 173.908 225.692L174.14 225.556C175.804 224.581 176.363 222.442 175.388 220.778C174.413 219.114 172.274 218.557 170.61 219.53Z" fill="white"/>
<path d="M138.199 154.873C136.055 152.729 133.203 151.549 130.17 151.549C127.138 151.549 124.286 152.729 122.141 154.873C117.714 159.301 117.714 166.505 122.141 170.932L142.76 191.55C144.904 193.694 147.756 194.875 150.789 194.875C153.822 194.875 156.673 193.694 158.818 191.55L201.861 148.506C206.288 144.077 206.288 136.874 201.861 132.448C199.716 130.304 196.865 129.124 193.832 129.124C190.798 129.124 187.947 130.304 185.802 132.448L150.788 167.462L138.199 154.873ZM190.741 137.387C191.566 136.562 192.664 136.107 193.832 136.107C195 136.107 196.098 136.562 196.923 137.387C198.627 139.091 198.627 141.864 196.923 143.568L153.88 186.612C153.055 187.437 151.957 187.891 150.789 187.891C149.621 187.891 148.523 187.437 147.697 186.612L127.079 165.994C125.375 164.289 125.375 161.516 127.078 159.812C127.904 158.987 129.002 158.532 130.17 158.532C131.338 158.532 132.436 158.987 133.261 159.812L148.319 174.87C148.974 175.525 149.862 175.893 150.788 175.893C151.714 175.893 152.602 175.525 153.257 174.87L190.741 137.387Z" fill="white"/>
</g>
<defs>
<linearGradient id="paint0_linear_96_29" x1="160" y1="0" x2="160.505" y2="323" gradientUnits="userSpaceOnUse">
<stop offset="0.136529" stop-color="#6B9AE2"/>
<stop offset="1" stop-color="#FF66C4"/>
</linearGradient>
<clipPath id="clip0_96_29">
<rect width="166" height="166" fill="white" transform="translate(79 79)"/>
</clipPath>
</defs>
</svg>
